<?xml version="1.0" encoding="UTF-8"?>
<!DOCTYPE svg PUBLIC "-//W3C//DTD SVG 1.1//EN" "http://www.w3.org/Graphics/SVG/1.1/DTD/svg11.dtd">
<!-- Creator: CorelDRAW -->
<svg xmlns="http://www.w3.org/2000/svg" xml:space="preserve" width="1.07826in" height="1.43985in" style="shape-rendering:geometricPrecision; text-rendering:geometricPrecision; image-rendering:optimizeQuality; fill-rule:evenodd; clip-rule:evenodd"
viewBox="0 0 0.836827 1.11746"
 xmlns:xlink="http://www.w3.org/1999/xlink">
 <defs>
  <style type="text/css">
   <![CDATA[
    .fil1 {fill:#FEFEFE}
    .fil0 {fill:#C22323}
   ]]>
  </style>
 </defs>
 <g id="Layer_x0020_1">
  <metadata id="CorelCorpID_0Corel-Layer"/>
  <circle class="fil0" cx="0.56502" cy="0.558728" r="0.271808"/>
  <polygon class="fil1" points="0.449217,0.730035 0.449217,0.730282 0.521926,0.730282 0.523105,0.618732 0.61282,0.617614 0.611751,0.545691 0.521959,0.545541 0.522259,0.459615 0.680829,0.459554 0.680252,0.387179 0.449217,0.387179 "/>
  <path class="fil0" d="M0.747842 1.08821l-0.0941272 -0.205781c-0.184542,0.0643454 -0.434905,-0.0743094 -0.433998,-0.319142 0.00034527,-0.0936842 0.0329167,-0.183552 0.11078,-0.253868 0.104944,-0.0776307 0.209637,-0.0974791 0.314168,-0.0793723 0.0153202,-0.0100281 0.0807595,-0.183201 0.0870782,-0.200003 -0.0299285,-0.0179326 -0.0861341,-0.0247983 -0.119912,-0.0277835 -0.34179,-0.0302218 -0.616502,0.247668 -0.611769,0.555417 0.00290577,0.188988 0.105341,0.38009 0.259789,0.472573 0.147907,0.0885663 0.266618,0.11297 0.487991,0.0579595z"/>
 </g>
</svg>
